<?xml version="1.0" encoding="utf-8"?>
<!-- Generator: Adobe Illustrator 16.0.0, SVG Export Plug-In . SVG Version: 6.00 Build 0)  -->
<!DOCTYPE svg PUBLIC "-//W3C//DTD SVG 1.1//EN" "http://www.w3.org/Graphics/SVG/1.1/DTD/svg11.dtd">
<svg version="1.1" id="Layer_1" xmlns="http://www.w3.org/2000/svg" xmlns:xlink="http://www.w3.org/1999/xlink" x="0px" y="0px"
	 width="496px" height="115px" viewBox="0 0 496 115" enable-background="new 0 0 496 115" xml:space="preserve">
<g>
	<path fill="#B2914E" d="M279.935,79.257v8.92h-10.443v-8.92h-3.649v21.521h3.649v-9.746h10.443v9.746h3.65V79.257H279.935z
		 M242.978,82.207h6.089v-2.949h-6.791c-4.897,0-6.845,1.689-6.845,5.934v9.686c0,4.243,1.948,5.901,6.845,5.901h6.791v-2.947
		h-6.089c-2.741,0-3.898-1.016-3.898-3.478v-8.641C239.08,83.222,240.237,82.207,242.978,82.207 M219.752,82.207v-2.949h-13.695
		V94.94c0,4.396,1.52,5.838,6.146,5.838h7.549v-2.947h-6.91c-2.161,0-3.134-1.046-3.134-3.199v-3.97h8.796v-2.793h-8.796v-5.662
		H219.752z M190.378,79.257h-15.551v2.949h5.935v18.571h3.652V82.207h5.965V79.257z M139.237,82.207v-2.949h-13.693V94.94
		c0,4.396,1.519,5.838,6.146,5.838h7.547v-2.947h-6.908c-2.162,0-3.138-1.046-3.138-3.199v-3.97h8.798v-2.793h-8.798v-5.662H139.237
		z M106.058,79.257l-5.083,9.653l-5.077-9.653h-3.898l7.152,12.606v8.915h3.648v-8.915l7.157-12.606H106.058z M77.687,82.207v-2.949
		H63.992V94.94c0,4.396,1.522,5.838,6.146,5.838h7.549v-2.947h-6.909c-2.163,0-3.135-1.046-3.135-3.199v-3.97h8.798v-2.793h-8.798
		v-5.662H77.687z"/>
	<path d="M328.398,26.368h-9.79c-1.417,0-2.124-0.699-2.124-2.093c0-0.331,0.062-0.75,0.186-1.263
		c0.881-3.736,1.323-6.046,1.323-6.929c0-2.32-0.523-4.104-1.572-5.355c-0.225-0.266-0.439-0.285-0.646-0.062
		c-2.091,2.113-3.458,4.362-4.094,6.741c1.519,1.087,2.278,2.535,2.278,4.341c0,1.643-0.082,2.947-0.246,3.91
		c-0.349,2.053-0.523,3.777-0.523,5.173c0,1.539,0.174,2.637,0.523,3.293c0.473,0.884,1.438,1.326,2.894,1.326h10.776
		c2.812,0,4.219,0.965,4.219,2.892c0,1.253-0.82,2.474-2.463,3.665l-4.834,3.508c-2.382,1.723-3.92,4.331-4.619,7.818l-0.892,4.497
		c-0.082,0.452,0.05,0.678,0.399,0.678c0.248,0,0.474-0.186,0.679-0.556c0.288-0.534,1.128-1.313,2.523-2.338l3.726-2.771
		c2.483-1.848,4.278-3.685,5.388-5.512c0.964-1.64,1.837-4.091,2.616-7.354l0.894-3.787c0.288-1.212,0.431-2.279,0.431-3.201
		C335.449,28.573,333.099,26.368,328.398,26.368 M307.277,27.443l-3.908-1.539c-1.437-0.574-2.398-1.282-2.892-2.124
		c-0.613,0.821-1.251,2.391-1.908,4.711c-0.617,2.156-0.924,3.756-0.924,4.802c0.472,0.657,1.556,1.325,3.263,2.001
		c1.331,0.533,2.533,0.934,3.6,1.201c-0.472,3.078-0.79,4.916-0.954,5.511c-0.534,1.889-1.413,3.416-2.646,4.585
		c-1.417,1.336-3.643,2.493-6.68,3.479c0.47-0.717,0.708-1.733,0.708-3.047c0-1.189-0.401-2.472-1.202-3.847l-2.862-4.893
		c-0.328-0.556-0.494-1.038-0.494-1.447c0-0.719,0.298-1.079,0.893-1.079c0.37,0,0.873,0.145,1.509,0.432
		c1.294-2.812,1.941-5.1,1.941-6.867c0-1.169-0.729-1.989-2.188-2.463l-3.354-1.075c-1.232-0.392-2.22-1.169-2.958-2.342
		c-0.738,0.944-1.375,2.485-1.909,4.619c-0.493,1.931-0.738,3.613-0.738,5.048c1.929,0.966,3.652,1.715,5.173,2.248
		c-0.207,1.149-0.311,2.084-0.311,2.802c0,2.195,0.484,4.084,1.447,5.666l2.002,3.26c0.595,0.967,0.892,1.848,0.892,2.647
		c0,0.533-0.215,0.873-0.646,1.016c-2.113,0.699-3.56,1.181-4.341,1.449c-1.292,0.429-2.135,1.886-2.525,4.369L284.53,61.4
		c2.688-0.615,5.715-1.58,9.083-2.892c4.145-1.623,6.894-3.049,8.249-4.28c2.07-1.889,3.395-3.973,3.97-6.25
		c0.204-0.801,0.369-3.067,0.492-6.802l0.062-1.817c0.042-1.169,0.258-2.267,0.646-3.293c0.246-0.676,0.729-1.765,1.447-3.264
		c0.495-1.046,0.74-1.909,0.74-2.585C309.218,28.902,308.57,27.979,307.277,27.443 M275.415,26.552
		c-2.053-0.822-3.313-1.745-3.786-2.771c-0.698,0.842-1.396,2.381-2.095,4.619c-0.656,2.134-0.984,3.808-0.984,5.02
		c0.862,0.901,2.083,1.64,3.664,2.215c1.847,0.677,2.771,1.641,2.771,2.895c0,0.78-0.329,1.96-0.985,3.54
		c-0.638,1.457-1.232,2.546-1.786,3.26c-0.453,0.578-0.491,0.875-0.124,0.893c1.067,0.024,1.97-0.417,2.71-1.324
		c1.333-1.659,2.513-3.722,3.541-6.185c1.089-2.628,1.631-4.916,1.631-6.866C279.973,29.548,278.454,27.783,275.415,26.552
		 M264.489,47.361c-0.414-1.27-0.815-2.563-1.216-3.876c-0.398-1.313-0.6-2.669-0.6-4.064c0-1.95,0.542-4.207,1.632-6.772
		c0.246-0.576,0.37-1.14,0.37-1.694c0-1.559-0.845-2.688-2.525-3.386l-3.571-1.478c-1.909-0.781-3.029-1.57-3.356-2.371
		c-0.719,0.883-1.412,2.31-2.08,4.28c-0.666,1.97-1,3.542-1,4.711c0.821,1.006,2.33,1.826,4.526,2.463
		c1.417,0.409,2.402,0.851,2.956,1.324c0.76,0.677,1.078,1.652,0.953,2.924c-0.326,3.592-0.492,5.287-0.492,5.079
		c0,1.601,0.083,2.759,0.247,3.479h-4.74c-0.987,0-1.705,0.235-2.156,0.708c-0.35,0.368-0.656,1.076-0.924,2.124l-1.631,6.25h10.406
		c0.556,0,1.179-0.431,1.879-1.293c0.615-0.74,1.034-1.428,1.261-2.063c0.471-1.355,0.687-2.444,0.647-3.264
		C265.012,49.558,264.814,48.531,264.489,47.361 M242.968,26.552c-2.052-0.822-3.313-1.745-3.786-2.771
		c-0.698,0.842-1.396,2.381-2.094,4.619c-0.657,2.134-0.984,3.808-0.984,5.02c0.862,0.901,2.081,1.64,3.662,2.215
		c1.846,0.677,2.771,1.641,2.771,2.895c0,0.78-0.327,1.96-0.983,3.54c-0.638,1.457-1.232,2.546-1.787,3.26
		c-0.451,0.578-0.492,0.875-0.124,0.893c1.068,0.024,1.97-0.417,2.712-1.324c1.333-1.659,2.512-3.722,3.538-6.185
		c1.087-2.628,1.633-4.916,1.633-6.866C247.525,29.548,246.007,27.783,242.968,26.552 M208.274,26.368h-4.157
		c-2.278,0-3.747-1.038-4.403-3.111c-0.677,0.862-1.355,2.34-2.034,4.435c-0.595,1.868-0.953,3.457-1.075,4.771
		c0.347,0.924,1.056,1.662,2.123,2.218c0.965,0.513,1.981,0.77,3.05,0.77h6.125c5.214,0,7.818,2.494,7.818,7.479
		c0,1.599-0.439,2.904-1.323,3.908c-0.676,0.76-1.313,1.14-1.908,1.14H201.47c-1.848,0-3.07,1.159-3.665,3.479l-1.447,5.604h15.887
		c0.555,0,0.894-0.082,1.016-0.247c3.693-4.803,5.541-10.394,5.541-16.777C218.802,30.924,215.293,26.368,208.274,26.368
		 M185.709,26.368h-9.792c-1.415,0-2.124-0.699-2.124-2.093c0-0.331,0.063-0.75,0.185-1.263c0.884-3.736,1.326-6.046,1.326-6.929
		c0-2.32-0.525-4.104-1.571-5.355c-0.226-0.266-0.442-0.285-0.646-0.062c-2.095,2.113-3.458,4.362-4.095,6.741
		c1.52,1.087,2.279,2.535,2.279,4.341c0,1.643-0.083,2.947-0.246,3.91c-0.349,2.053-0.523,3.777-0.523,5.173
		c0,1.539,0.175,2.637,0.523,3.293c0.47,0.884,1.437,1.326,2.895,1.326h10.775c2.811,0,4.217,0.965,4.217,2.892
		c0,1.253-0.82,2.474-2.463,3.665l-4.833,3.508c-2.379,1.723-3.918,4.331-4.618,7.818l-0.893,4.497
		c-0.082,0.452,0.051,0.678,0.401,0.678c0.247,0,0.471-0.186,0.678-0.556c0.285-0.534,1.127-1.313,2.523-2.338l3.726-2.771
		c2.485-1.848,4.28-3.685,5.39-5.512c0.963-1.64,1.835-4.091,2.616-7.354l0.894-3.787c0.286-1.212,0.429-2.279,0.429-3.201
		C192.759,28.573,190.408,26.368,185.709,26.368 M148.12,26.552c-2.052-0.822-3.315-1.745-3.787-2.771
		c-0.699,0.842-1.395,2.381-2.093,4.619c-0.658,2.134-0.987,3.808-0.987,5.02c0.862,0.901,2.084,1.64,3.664,2.215
		c1.848,0.677,2.771,1.641,2.771,2.895c0,0.78-0.329,1.96-0.985,3.54c-0.636,1.457-1.231,2.546-1.786,3.26
		c-0.45,0.578-0.493,0.875-0.123,0.893c1.067,0.024,1.97-0.417,2.708-1.324c1.336-1.659,2.516-3.722,3.542-6.185
		c1.087-2.628,1.632-4.916,1.632-6.866C152.678,29.548,151.157,27.783,148.12,26.552 M135.59,26.983l-2.463-0.893
		c-1.662-0.595-2.721-1.365-3.172-2.31c-0.595,0.862-1.23,2.505-1.908,4.928c-0.657,2.319-1.007,4.073-1.048,5.263
		c0.472,0.474,1.087,0.895,1.848,1.263c0.102,0.041,0.791,0.337,2.063,0.894c0.966,0.41,1.447,0.973,1.447,1.692v0.401
		c0,7.47-3.756,11.205-11.266,11.205c-0.636,0-0.953-0.339-0.953-1.016V36.773c0-0.431,0.123-0.646,0.368-0.646
		c0.474,0,1.089,0.277,1.849,0.83c0.755-1.251,1.386-3.457,1.874-6.618c0.042-0.248,0.063-0.472,0.063-0.678
		c0-1.292-0.644-2.124-1.937-2.492l-3.48-1.016c-1.292-0.37-2.195-1.1-2.71-2.187c-0.656,0.819-1.251,2.391-1.784,4.709
		c-0.493,2.074-0.739,3.777-0.739,5.111c0.514,0.473,1.477,0.955,2.894,1.447c0.596,0.205,0.892,0.647,0.892,1.324v12.867
		c-7.451,0-11.175-3.252-11.175-9.758v-3.17c0-0.288,0.175-0.431,0.523-0.431c0.535,0,1.181,0.358,1.939,1.077
		c0.513-0.699,1.037-2.002,1.571-3.91c0.471-1.684,0.708-2.843,0.708-3.48c0-1.476-0.822-2.502-2.465-3.078l-2.892-1.016
		c-0.944-0.329-1.682-1.067-2.218-2.217c-0.781,0.944-1.478,2.587-2.093,4.927c-0.576,2.136-0.86,3.92-0.86,5.357l2.091,0.863
		c0.801,0.431,1.202,0.983,1.202,1.662v5.604c0,5.661,1.107,9.716,3.325,12.158c2.341,2.546,6.291,3.818,11.854,3.818
		c5.6,0,9.651-1.314,12.157-3.941c2.484-2.565,3.724-6.681,3.724-12.344v-2.709c0-1.006,0.401-2.392,1.202-4.155l1.199-2.647
		c0.331-0.719,0.495-1.437,0.495-2.156C137.715,28.461,137.005,27.497,135.59,26.983 M95.169,43.825
		c0-1.623,0.164-3.162,0.493-4.619c0.471-2.113,0.708-3.602,0.708-4.464c0-5.583-3.088-8.374-9.265-8.374h-4.063
		c-2.259,0-3.727-1.038-4.404-3.111c-0.677,0.844-1.343,2.32-2,4.435c-0.595,1.907-0.954,3.499-1.079,4.771
		c0.268,0.76,0.944,1.459,2.034,2.093c1.026,0.595,1.959,0.895,2.802,0.895h5.878c2.254,0,3.882,0.476,4.877,1.43
		c0.996,0.955,1.494,2.55,1.494,4.788l-0.399,3.477c-0.454,3.734-0.679,6.023-0.679,6.865c0,2.71,0.297,4.629,0.892,5.756
		c0.166,0.331,0.393,0.35,0.679,0.063c1.723-1.724,2.883-3.684,3.48-5.882C95.65,49.301,95.169,46.593,95.169,43.825 M69.832,45.207
		c-0.863-1.127-1.826-2.245-2.895-3.353l-1.015-1.048c-0.553-0.574-0.831-1.396-0.831-2.463c0-0.369,0.166-0.882,0.493-1.539
		c0.37-0.738,0.699-1.15,0.985-1.232c0.123-0.061,0.266-0.092,0.429-0.092c0.822,0,1.562,0.615,2.219,1.848
		c0.615-0.677,1.251-1.79,1.908-3.341c0.658-1.549,0.987-2.766,0.987-3.647c0-1.58-1.223-2.904-3.665-3.971
		c-1.725-0.738-2.945-1.715-3.665-2.926c-0.552,0.576-1.215,1.945-1.984,4.111c-0.77,2.166-1.155,3.68-1.155,4.54
		c1.374,0.967,2.461,1.684,3.262,2.156c-1.128,1.047-1.877,2.134-2.247,3.264c-4.556-4.085-7.646-6.877-9.265-8.374
		c-2.26-1.993-3.613-3.931-4.063-5.819c-0.658,0.677-1.406,1.897-2.247,3.663c-0.966,2.011-1.448,3.613-1.448,4.803
		c0.494,1.621,1.479,2.986,2.955,4.096l1.755,1.323c-2.647,2.647-3.971,5.942-3.971,9.88c0,0.554,0.097,1.374,0.293,2.461
		c0.194,1.089,0.291,1.911,0.291,2.464c0,2.113-0.698,3.714-2.093,4.803c-0.082,0.082-0.124,0.184-0.124,0.309
		c0,0.121,0.063,0.184,0.186,0.184c0.492,0,1.255-0.041,2.292-0.125c1.037-0.082,1.813-0.121,2.324-0.121h2.584
		c1.314,0,2.291-0.495,2.925-1.479c0.41-0.656,0.76-1.764,1.046-3.323l0.679-3.571h-2.277c-3.14,0-4.709-1.374-4.709-4.125
		c0-2.544,0.707-4.596,2.124-6.157c1.906,1.191,4.206,3.182,6.893,5.972c2.875,2.974,5.246,5.839,7.112,8.588
		c0.966,1.417,1.888,3.099,2.771,5.048c0.76-0.513,1.531-1.897,2.312-4.155c0.738-2.093,1.108-3.695,1.108-4.803
		C71.701,47.968,70.939,46.685,69.832,45.207 M34.245,26.368h-9.792c-1.415,0-2.124-0.699-2.124-2.093
		c0-0.331,0.063-0.75,0.184-1.263c0.885-3.736,1.326-6.046,1.326-6.929c0-2.32-0.525-4.104-1.571-5.355
		c-0.226-0.266-0.442-0.285-0.644-0.062c-2.097,2.113-3.46,4.362-4.098,6.741c1.521,1.087,2.28,2.535,2.28,4.341
		c0,1.643-0.082,2.947-0.247,3.91c-0.35,2.053-0.524,3.777-0.524,5.173c0,1.539,0.174,2.637,0.524,3.293
		c0.472,0.884,1.436,1.326,2.894,1.326h10.775c2.811,0,4.218,0.965,4.218,2.892c0,1.253-0.822,2.474-2.464,3.665l-4.834,3.508
		c-2.379,1.723-3.918,4.331-4.617,7.818l-0.893,4.497c-0.083,0.452,0.053,0.678,0.4,0.678c0.247,0,0.472-0.186,0.678-0.556
		c0.287-0.534,1.129-1.313,2.523-2.338l3.726-2.771c2.485-1.848,4.281-3.685,5.389-5.512c0.963-1.64,1.836-4.091,2.615-7.354
		l0.895-3.787c0.286-1.212,0.431-2.279,0.431-3.201C41.296,28.573,38.944,26.368,34.245,26.368"/>
</g>
<g>
	
		<line fill="none" stroke="#000000" stroke-width="1.836" stroke-linejoin="round" x1="440.765" y1="62.768" x2="481.26" y2="62.768"/>
	<g>
		<defs>
			<rect id="SVGID_1_" x="317.089" y="14.737" width="189.911" height="151.93"/>
		</defs>
		<clipPath id="SVGID_2_">
			<use xlink:href="#SVGID_1_"  overflow="visible"/>
		</clipPath>
		
			<circle clip-path="url(#SVGID_2_)" fill="none" stroke="#000000" stroke-width="1.139" stroke-linejoin="round" cx="483.337" cy="62.767" r="2.076"/>
		<path clip-path="url(#SVGID_2_)" fill="none" stroke="#000000" stroke-width="1.836" stroke-linejoin="round" d="M440.765,70.432
			h14.642c1.48,0,3.599,0.772,4.734,1.722l4.276,3.587c0.567,0.476,1.627,0.861,2.366,0.861h2.042"/>
		
			<circle clip-path="url(#SVGID_2_)" fill="none" stroke="#000000" stroke-width="1.139" stroke-linejoin="round" cx="470.901" cy="76.602" r="2.076"/>
		<path clip-path="url(#SVGID_2_)" fill="none" stroke="#000000" stroke-width="1.836" stroke-linejoin="round" d="M443.351,54.929
			h25.404c0.739,0,1.804-0.379,2.379-0.846l2.368-1.925"/>
		
			<circle clip-path="url(#SVGID_2_)" fill="none" stroke="#000000" stroke-width="1.139" stroke-linejoin="round" cx="475.112" cy="50.848" r="2.076"/>
		<path clip-path="url(#SVGID_2_)" fill="none" stroke="#000000" stroke-width="1.836" stroke-linejoin="round" d="M439.411,77.976
			h14.715c0.741,0,1.806,0.379,2.379,0.846l2.368,1.925"/>
		
			<circle clip-path="url(#SVGID_2_)" fill="none" stroke="#000000" stroke-width="1.139" stroke-linejoin="round" cx="460.484" cy="82.056" r="2.076"/>
		<path clip-path="url(#SVGID_2_)" fill="none" stroke="#000000" stroke-width="1.836" stroke-linejoin="round" d="M438.947,47.145
			h20.825c0.739,0,1.805-0.379,2.378-0.846l2.369-1.925"/>
		
			<circle clip-path="url(#SVGID_2_)" fill="none" stroke="#000000" stroke-width="1.139" stroke-linejoin="round" cx="466.129" cy="43.064" r="2.076"/>
		<path clip-path="url(#SVGID_2_)" fill="none" stroke="#000000" stroke-width="1.836" stroke-linejoin="round" d="M435.509,84.908
			h11.223c0.742,0,1.806,0.379,2.379,0.846l4.736,3.85h1.857"/>
		
			<circle clip-path="url(#SVGID_2_)" fill="none" stroke="#000000" stroke-width="1.139" stroke-linejoin="round" cx="457.782" cy="89.605" r="2.076"/>
	</g>
	
		<line fill="none" stroke="#000000" stroke-width="1.836" stroke-linejoin="round" x1="446.551" y1="70.481" x2="474.08" y2="70.481"/>
	<g>
		<defs>
			<rect id="SVGID_3_" x="317.089" y="14.737" width="189.911" height="151.93"/>
		</defs>
		<clipPath id="SVGID_4_">
			<use xlink:href="#SVGID_3_"  overflow="visible"/>
		</clipPath>
		
			<circle clip-path="url(#SVGID_4_)" fill="none" stroke="#000000" stroke-width="1.139" stroke-linejoin="round" cx="476.156" cy="70.481" r="2.077"/>
	</g>
	
		<line fill="none" stroke="#000000" stroke-width="1.836" stroke-linejoin="round" x1="421.558" y1="94.014" x2="446.985" y2="94.014"/>
	<g>
		<defs>
			<rect id="SVGID_5_" x="317.089" y="14.737" width="189.911" height="151.93"/>
		</defs>
		<clipPath id="SVGID_6_">
			<use xlink:href="#SVGID_5_"  overflow="visible"/>
		</clipPath>
		
			<circle clip-path="url(#SVGID_6_)" fill="none" stroke="#000000" stroke-width="1.139" stroke-linejoin="round" cx="449.06" cy="94.013" r="2.076"/>
	</g>
	
		<line fill="none" stroke="#000000" stroke-width="1.836" stroke-linejoin="round" x1="436.606" y1="39.425" x2="453.162" y2="39.425"/>
	<g>
		<defs>
			<rect id="SVGID_7_" x="317.089" y="14.737" width="189.911" height="151.93"/>
		</defs>
		<clipPath id="SVGID_8_">
			<use xlink:href="#SVGID_7_"  overflow="visible"/>
		</clipPath>
		
			<circle clip-path="url(#SVGID_8_)" fill="none" stroke="#000000" stroke-width="1.139" stroke-linejoin="round" cx="455.237" cy="39.424" r="2.077"/>
	</g>
	
		<line fill="none" stroke="#000000" stroke-width="1.836" stroke-linejoin="round" x1="428.927" y1="32.075" x2="445.412" y2="32.075"/>
	<g>
		<defs>
			<rect id="SVGID_9_" x="317.089" y="14.737" width="189.911" height="151.93"/>
		</defs>
		<clipPath id="SVGID_10_">
			<use xlink:href="#SVGID_9_"  overflow="visible"/>
		</clipPath>
		
			<circle clip-path="url(#SVGID_10_)" fill="none" stroke="#000000" stroke-width="1.139" stroke-linejoin="round" cx="447.489" cy="32.074" r="2.076"/>
	</g>
	
		<line fill="none" stroke="#000000" stroke-width="1.836" stroke-linejoin="round" x1="384.141" y1="63.32" x2="343.646" y2="63.32"/>
	<g>
		<defs>
			<rect id="SVGID_11_" x="317.089" y="14.737" width="189.911" height="151.93"/>
		</defs>
		<clipPath id="SVGID_12_">
			<use xlink:href="#SVGID_11_"  overflow="visible"/>
		</clipPath>
		
			<circle clip-path="url(#SVGID_12_)" fill="none" stroke="#000000" stroke-width="1.139" stroke-linejoin="round" cx="341.569" cy="63.32" r="2.076"/>
		<path clip-path="url(#SVGID_12_)" fill="none" stroke="#000000" stroke-width="1.836" stroke-linejoin="round" d="M384.141,55.656
			h-14.642c-1.48,0-3.599-0.772-4.733-1.722l-4.276-3.587c-0.567-0.476-1.627-0.86-2.366-0.86h-2.042"/>
		
			<circle clip-path="url(#SVGID_12_)" fill="none" stroke="#000000" stroke-width="1.139" stroke-linejoin="round" cx="354.004" cy="49.486" r="2.076"/>
		<path clip-path="url(#SVGID_12_)" fill="none" stroke="#000000" stroke-width="1.836" stroke-linejoin="round" d="M381.556,71.159
			h-25.404c-0.739,0-1.805,0.379-2.379,0.846l-2.368,1.925"/>
		
			<circle clip-path="url(#SVGID_12_)" fill="none" stroke="#000000" stroke-width="1.139" stroke-linejoin="round" cx="349.794" cy="75.239" r="2.076"/>
		<path clip-path="url(#SVGID_12_)" fill="none" stroke="#000000" stroke-width="1.836" stroke-linejoin="round" d="M385.496,48.112
			h-14.716c-0.739,0-1.805-0.379-2.378-0.846l-2.369-1.926"/>
		
			<circle clip-path="url(#SVGID_12_)" fill="none" stroke="#000000" stroke-width="1.139" stroke-linejoin="round" cx="364.422" cy="44.031" r="2.076"/>
		<path clip-path="url(#SVGID_12_)" fill="none" stroke="#000000" stroke-width="1.836" stroke-linejoin="round" d="M385.959,78.943
			h-20.825c-0.74,0-1.806,0.379-2.379,0.845l-2.368,1.926"/>
		
			<circle clip-path="url(#SVGID_12_)" fill="none" stroke="#000000" stroke-width="1.139" stroke-linejoin="round" cx="358.776" cy="83.023" r="2.076"/>
		<path clip-path="url(#SVGID_12_)" fill="none" stroke="#000000" stroke-width="1.836" stroke-linejoin="round" d="M389.397,41.179
			h-11.223c-0.741,0-1.806-0.379-2.379-0.846l-4.735-3.85H369.2"/>
		
			<circle clip-path="url(#SVGID_12_)" fill="none" stroke="#000000" stroke-width="1.139" stroke-linejoin="round" cx="367.125" cy="36.483" r="2.077"/>
	</g>
	
		<line fill="none" stroke="#000000" stroke-width="1.836" stroke-linejoin="round" x1="378.355" y1="55.606" x2="350.826" y2="55.606"/>
	<g>
		<defs>
			<rect id="SVGID_13_" x="317.089" y="14.737" width="189.911" height="151.93"/>
		</defs>
		<clipPath id="SVGID_14_">
			<use xlink:href="#SVGID_13_"  overflow="visible"/>
		</clipPath>
		
			<circle clip-path="url(#SVGID_14_)" fill="none" stroke="#000000" stroke-width="1.139" stroke-linejoin="round" cx="348.75" cy="55.607" r="2.076"/>
	</g>
	
		<line fill="none" stroke="#000000" stroke-width="1.836" stroke-linejoin="round" x1="403.349" y1="32.074" x2="377.921" y2="32.074"/>
	<g>
		<defs>
			<rect id="SVGID_15_" x="317.089" y="14.737" width="189.911" height="151.93"/>
		</defs>
		<clipPath id="SVGID_16_">
			<use xlink:href="#SVGID_15_"  overflow="visible"/>
		</clipPath>
		
			<circle clip-path="url(#SVGID_16_)" fill="none" stroke="#000000" stroke-width="1.139" stroke-linejoin="round" cx="375.845" cy="32.075" r="2.076"/>
	</g>
	
		<line fill="none" stroke="#000000" stroke-width="1.836" stroke-linejoin="round" x1="388.3" y1="86.663" x2="371.745" y2="86.663"/>
	<g>
		<defs>
			<rect id="SVGID_17_" x="317.089" y="14.737" width="189.911" height="151.93"/>
		</defs>
		<clipPath id="SVGID_18_">
			<use xlink:href="#SVGID_17_"  overflow="visible"/>
		</clipPath>
		
			<circle clip-path="url(#SVGID_18_)" fill="none" stroke="#000000" stroke-width="1.139" stroke-linejoin="round" cx="369.668" cy="86.663" r="2.076"/>
	</g>
	
		<line fill="none" stroke="#000000" stroke-width="1.836" stroke-linejoin="round" x1="395.978" y1="94.013" x2="379.493" y2="94.013"/>
	<g>
		<defs>
			<rect id="SVGID_19_" x="317.089" y="14.737" width="189.911" height="151.93"/>
		</defs>
		<clipPath id="SVGID_20_">
			<use xlink:href="#SVGID_19_"  overflow="visible"/>
		</clipPath>
		
			<circle clip-path="url(#SVGID_20_)" fill="none" stroke="#000000" stroke-width="1.139" stroke-linejoin="round" cx="377.417" cy="94.013" r="2.076"/>
		<path clip-path="url(#SVGID_20_)" fill="#FFFFFF" d="M412.037,101.298c21.279,0,38.532-17.25,38.532-38.531
			c0-21.279-17.252-38.53-38.532-38.53c-21.279,0-38.53,17.25-38.53,38.53C373.507,84.048,390.758,101.298,412.037,101.298"/>
		<circle clip-path="url(#SVGID_20_)" fill="none" stroke="#000000" stroke-width="4.833" cx="412.037" cy="62.768" r="38.53"/>
		<path clip-path="url(#SVGID_20_)" fill="#B2914E" d="M411.524,83.111c11.235,0,20.343-9.108,20.343-20.343
			c0-11.234-9.108-20.343-20.343-20.343c-11.236,0-20.344,9.108-20.344,20.343C391.18,74.003,400.288,83.111,411.524,83.111"/>
	</g>
	<line fill="none" stroke="#FFFFFF" stroke-width="2.248" x1="406.688" y1="68.388" x2="406.688" y2="87.479"/>
	<g>
		<defs>
			<rect id="SVGID_21_" x="317.089" y="14.737" width="189.911" height="151.93"/>
		</defs>
		<clipPath id="SVGID_22_">
			<use xlink:href="#SVGID_21_"  overflow="visible"/>
		</clipPath>
		<path clip-path="url(#SVGID_22_)" fill="#FFFFFF" d="M404.301,71.291c1.884,0,3.412-1.528,3.412-3.412
			c0-1.883-1.528-3.411-3.412-3.411c-1.884,0-3.412,1.527-3.412,3.411C400.889,69.763,402.417,71.291,404.301,71.291"/>
	</g>
	<line fill="none" stroke="#FFFFFF" stroke-width="2.248" x1="416.359" y1="68.388" x2="416.359" y2="87.479"/>
	<g>
		<defs>
			<rect id="SVGID_23_" x="317.089" y="14.737" width="189.911" height="151.93"/>
		</defs>
		<clipPath id="SVGID_24_">
			<use xlink:href="#SVGID_23_"  overflow="visible"/>
		</clipPath>
		<path clip-path="url(#SVGID_24_)" fill="#FFFFFF" d="M418.747,71.291c-1.885,0-3.412-1.528-3.412-3.412
			c0-1.883,1.527-3.411,3.412-3.411c1.884,0,3.412,1.527,3.412,3.411C422.158,69.763,420.631,71.291,418.747,71.291"/>
	</g>
	<line fill="none" stroke="#FFFFFF" stroke-width="2.248" x1="411.524" y1="63.21" x2="411.524" y2="92.561"/>
	<path fill="#FFFFFF" d="M411.524,63.646c1.883,0,3.412-1.528,3.412-3.412c0-1.883-1.528-3.411-3.412-3.411
		c-1.885,0-3.412,1.528-3.412,3.411C408.112,62.118,409.639,63.646,411.524,63.646"/>
	<rect x="317.089" y="14.737" fill="none" width="189.911" height="151.93"/>
</g>
</svg>
